<?xml version="1.0" encoding="UTF-8"?>
<!DOCTYPE svg PUBLIC "-//W3C//DTD SVG 1.1//EN" "http://www.w3.org/Graphics/SVG/1.1/DTD/svg11.dtd">
<svg xmlns="http://www.w3.org/2000/svg" version="1.1" width="388px" height="220px" style="shape-rendering:geometricPrecision; text-rendering:geometricPrecision; image-rendering:optimizeQuality; fill-rule:evenodd; clip-rule:evenodd" xmlns:xlink="http://www.w3.org/1999/xlink">
<g><path style="opacity:1" fill="#0d2329" d="M -0.5,-0.5 C 128.833,-0.5 258.167,-0.5 387.5,-0.5C 387.5,72.8333 387.5,146.167 387.5,219.5C 258.167,219.5 128.833,219.5 -0.5,219.5C -0.5,146.167 -0.5,72.8333 -0.5,-0.5 Z"/></g>
<g><path style="opacity:1" fill="#b8eb5a" d="M 215.5,21.5 C 228.985,19.6582 237.318,25.3249 240.5,38.5C 240.663,40.8568 240.497,43.1902 240,45.5C 232.187,38.2643 224.187,31.2643 216,24.5C 215.517,23.552 215.351,22.552 215.5,21.5 Z"/></g>
<g><path style="opacity:1" fill="#11d6a7" d="M 163.5,23.5 C 163.204,25.403 162.537,27.0697 161.5,28.5C 152.139,33.8887 142.639,39.8887 133,46.5C 132.722,45.5842 132.222,44.9175 131.5,44.5C 129.984,30.0334 136.317,21.7 150.5,19.5C 155.104,19.9698 159.438,21.3031 163.5,23.5 Z"/></g>
<g><path style="opacity:1" fill="#47dc6f" d="M 204.5,25.5 C 204.672,26.4916 204.338,27.1583 203.5,27.5C 193.507,26.5805 183.34,25.9138 173,25.5C 169.748,25.4809 166.915,24.8142 164.5,23.5C 172.245,8.31785 183.245,5.48452 197.5,15C 200.474,18.1278 202.807,21.6278 204.5,25.5 Z"/></g>
<g><path style="opacity:1" fill="#9cd658" d="M 215.5,21.5 C 215.351,22.552 215.517,23.552 216,24.5C 224.187,31.2643 232.187,38.2643 240,45.5C 240.497,43.1902 240.663,40.8568 240.5,38.5C 242.018,44.3006 241.351,49.9673 238.5,55.5C 236.315,53.2384 233.648,51.7384 230.5,51C 221.275,43.265 212.275,35.4317 203.5,27.5C 204.338,27.1583 204.672,26.4916 204.5,25.5C 208.167,24.1667 211.833,22.8333 215.5,21.5 Z"/></g>
<g><path style="opacity:1" fill="#3ecc6c" d="M 163.5,23.5 C 163.833,23.5 164.167,23.5 164.5,23.5C 166.915,24.8142 169.748,25.4809 173,25.5C 183.34,25.9138 193.507,26.5805 203.5,27.5C 200.94,29.2733 198.607,31.2733 196.5,33.5C 184.809,33.0064 173.142,32.3397 161.5,31.5C 161.5,30.5 161.5,29.5 161.5,28.5C 162.537,27.0697 163.204,25.403 163.5,23.5 Z"/></g>
<g><path style="opacity:1" fill="#36be68" d="M 161.5,31.5 C 173.142,32.3397 184.809,33.0064 196.5,33.5C 196.167,34.1667 195.833,34.8333 195.5,35.5C 193.1,37.2964 191.433,39.6298 190.5,42.5C 190.167,42.5 189.833,42.5 189.5,42.5C 179.852,41.7549 170.185,41.4216 160.5,41.5C 160.5,39.5 160.5,37.5 160.5,35.5C 160.232,33.901 160.566,32.5676 161.5,31.5 Z"/></g>
<g><path style="opacity:1" fill="#2eb064" d="M 160.5,35.5 C 160.5,37.5 160.5,39.5 160.5,41.5C 170.185,41.4216 179.852,41.7549 189.5,42.5C 188.5,44.5 187.5,46.5 186.5,48.5C 177.344,49.01 168.344,48.3434 159.5,46.5C 159.185,42.6286 159.518,38.9619 160.5,35.5 Z"/></g>
<g><path style="opacity:1" fill="#6cb356" d="M 195.5,35.5 C 207.817,45.153 219.817,55.153 231.5,65.5C 230.243,68.4274 228.243,70.7607 225.5,72.5C 216.835,66.4917 208.501,59.9917 200.5,53C 196.772,49.6876 193.439,46.1876 190.5,42.5C 191.433,39.6298 193.1,37.2964 195.5,35.5 Z"/></g>
<g><path style="opacity:1" fill="#0ebe94" d="M 161.5,28.5 C 161.5,29.5 161.5,30.5 161.5,31.5C 160.566,32.5676 160.232,33.901 160.5,35.5C 159.518,38.9619 159.185,42.6286 159.5,46.5C 159.5,47.8333 159.5,49.1667 159.5,50.5C 152.64,55.0949 145.64,59.4283 138.5,63.5C 134.797,57.7438 132.463,51.4105 131.5,44.5C 132.222,44.9175 132.722,45.5842 133,46.5C 142.639,39.8887 152.139,33.8887 161.5,28.5 Z"/></g>
<g><path style="opacity:1" fill="#85c657" d="M 203.5,27.5 C 212.275,35.4317 221.275,43.265 230.5,51C 233.648,51.7384 236.315,53.2384 238.5,55.5C 236.912,59.4101 234.579,62.7435 231.5,65.5C 219.817,55.153 207.817,45.153 195.5,35.5C 195.833,34.8333 196.167,34.1667 196.5,33.5C 198.607,31.2733 200.94,29.2733 203.5,27.5 Z"/></g>
<g><path style="opacity:1" fill="#0dac86" d="M 159.5,50.5 C 160.378,53.7611 161.044,57.0945 161.5,60.5C 162.301,62.0418 162.634,63.7085 162.5,65.5C 157.42,69.0378 152.087,72.0378 146.5,74.5C 143.099,71.3647 140.433,67.698 138.5,63.5C 145.64,59.4283 152.64,55.0949 159.5,50.5 Z"/></g>
<g><path style="opacity:1" fill="#53a054" d="M 189.5,42.5 C 189.833,42.5 190.167,42.5 190.5,42.5C 193.439,46.1876 196.772,49.6876 200.5,53C 208.501,59.9917 216.835,66.4917 225.5,72.5C 223.451,75.5497 220.784,77.883 217.5,79.5C 206.519,70.8571 195.519,62.1904 184.5,53.5C 184.893,51.7162 185.559,50.0495 186.5,48.5C 187.5,46.5 188.5,44.5 189.5,42.5 Z"/></g>
<g><path style="opacity:1" fill="#429353" d="M 184.5,53.5 C 195.519,62.1904 206.519,70.8571 217.5,79.5C 216.5,81.1667 215.167,82.5 213.5,83.5C 211.86,82.6799 210.193,81.8466 208.5,81C 199.664,73.6615 190.997,66.1615 182.5,58.5C 182.402,56.4471 183.069,54.7804 184.5,53.5 Z"/></g>
<g><path style="opacity:1" fill="#21995d" d="M 159.5,46.5 C 168.344,48.3434 177.344,49.01 186.5,48.5C 185.559,50.0495 184.893,51.7162 184.5,53.5C 183.069,54.7804 182.402,56.4471 182.5,58.5C 181.733,59.172 181.066,60.0053 180.5,61C 174.15,61.5244 167.816,61.3577 161.5,60.5C 161.044,57.0945 160.378,53.7611 159.5,50.5C 159.5,49.1667 159.5,47.8333 159.5,46.5 Z"/></g>
<g><path style="opacity:1" fill="#2d8753" d="M 182.5,58.5 C 190.997,66.1615 199.664,73.6615 208.5,81C 210.193,81.8466 211.86,82.6799 213.5,83.5C 211.45,85.5475 209.117,87.2141 206.5,88.5C 197.593,81.3334 188.76,74.0001 180,66.5C 174.55,67.4299 169.05,67.7633 163.5,67.5C 163.672,66.5084 163.338,65.8417 162.5,65.5C 162.634,63.7085 162.301,62.0418 161.5,60.5C 167.816,61.3577 174.15,61.5244 180.5,61C 181.066,60.0053 181.733,59.172 182.5,58.5 Z"/></g>
<g><path style="opacity:1" fill="#1e7b51" d="M 206.5,88.5 C 205.421,90.543 203.754,91.8763 201.5,92.5C 200.448,92.6495 199.448,92.4828 198.5,92C 191.459,85.8236 184.459,79.6569 177.5,73.5C 173.529,74.5558 169.529,74.5558 165.5,73.5C 164.637,71.5786 163.971,69.5786 163.5,67.5C 169.05,67.7633 174.55,67.4299 180,66.5C 188.76,74.0001 197.593,81.3334 206.5,88.5 Z"/></g>
<g><path style="opacity:1" fill="#098b6c" d="M 162.5,65.5 C 163.338,65.8417 163.672,66.5084 163.5,67.5C 163.971,69.5786 164.637,71.5786 165.5,73.5C 167.359,81.0521 170.693,87.8855 175.5,94C 174.207,94.49 172.873,94.6567 171.5,94.5C 161.988,89.3228 153.655,82.6561 146.5,74.5C 152.087,72.0378 157.42,69.0378 162.5,65.5 Z"/></g>
<g><path style="opacity:1" fill="#09684f" d="M 165.5,73.5 C 169.529,74.5558 173.529,74.5558 177.5,73.5C 184.459,79.6569 191.459,85.8236 198.5,92C 199.448,92.4828 200.448,92.6495 201.5,92.5C 191.84,100.436 181.84,101.103 171.5,94.5C 172.873,94.6567 174.207,94.49 175.5,94C 170.693,87.8855 167.359,81.0521 165.5,73.5 Z"/></g>
<g><path style="opacity:1" fill="#f7f8f8" d="M 34.5,140.5 C 29.1667,140.5 23.8333,140.5 18.5,140.5C 18.5,146.5 18.5,152.5 18.5,158.5C 16.1667,158.5 13.8333,158.5 11.5,158.5C 11.5,144.833 11.5,131.167 11.5,117.5C 20.5,117.5 29.5,117.5 38.5,117.5C 38.5,119.5 38.5,121.5 38.5,123.5C 32.1667,123.5 25.8333,123.5 19.5,123.5C 19.5,127.167 19.5,130.833 19.5,134.5C 24.5,134.5 29.5,134.5 34.5,134.5C 34.5,136.5 34.5,138.5 34.5,140.5 Z"/></g>
<g><path style="opacity:1" fill="#f2f4f4" d="M 157.5,116.5 C 165.575,115.358 172.408,117.691 178,123.5C 179.411,125.65 180.245,127.984 180.5,130.5C 177.813,130.664 175.146,130.497 172.5,130C 165.964,121.597 159.131,121.43 152,129.5C 149.688,135.691 150.021,141.691 153,147.5C 157.218,152.63 162.384,153.796 168.5,151C 170.213,149.622 171.547,147.955 172.5,146C 175.146,145.503 177.813,145.336 180.5,145.5C 179.095,152.74 174.762,157.24 167.5,159C 148.526,159.685 140.359,150.518 143,131.5C 145.351,123.984 150.184,118.984 157.5,116.5 Z"/></g>
<g><path style="opacity:1" fill="#f2f3f3" d="M 349.5,121.5 C 352.167,121.5 354.833,121.5 357.5,121.5C 357.5,124.167 357.5,126.833 357.5,129.5C 359.833,129.5 362.167,129.5 364.5,129.5C 364.5,131.5 364.5,133.5 364.5,135.5C 362.167,135.5 359.833,135.5 357.5,135.5C 357.5,140.833 357.5,146.167 357.5,151.5C 359.833,151.5 362.167,151.5 364.5,151.5C 364.5,153.833 364.5,156.167 364.5,158.5C 359.515,159.229 355.015,158.229 351,155.5C 349.58,148.95 349.08,142.284 349.5,135.5C 347.833,135.5 346.167,135.5 344.5,135.5C 344.5,133.5 344.5,131.5 344.5,129.5C 346.167,129.5 347.833,129.5 349.5,129.5C 349.5,126.833 349.5,124.167 349.5,121.5 Z"/></g>
<g><path style="opacity:1" fill="#f1f2f2" d="M 49.5,128.5 C 56.0917,127.64 61.5917,129.64 66,134.5C 67.4352,142.389 67.9352,150.389 67.5,158.5C 65.1667,158.5 62.8333,158.5 60.5,158.5C 60.6567,157.127 60.49,155.793 60,154.5C 54.0264,160.786 47.6931,161.119 41,155.5C 38.1318,149.54 39.6318,145.04 45.5,142C 50.1548,141.501 54.8215,141.334 59.5,141.5C 59.8423,137.176 57.8423,135.176 53.5,135.5C 50.447,134.952 48.447,136.118 47.5,139C 45.1902,139.497 42.8568,139.663 40.5,139.5C 40.9605,133.71 43.9605,130.043 49.5,128.5 Z"/></g>
<g><path style="opacity:1" fill="#f6f7f7" d="M 85.5,128.5 C 86.8333,128.5 88.1667,128.5 89.5,128.5C 89.5,131.167 89.5,133.833 89.5,136.5C 85.406,135.705 82.2393,137.038 80,140.5C 79.5005,146.491 79.3338,152.491 79.5,158.5C 76.8333,158.5 74.1667,158.5 71.5,158.5C 71.5,148.833 71.5,139.167 71.5,129.5C 73.8333,129.5 76.1667,129.5 78.5,129.5C 78.3398,131.199 78.5065,132.866 79,134.5C 81.0627,132.266 83.2294,130.266 85.5,128.5 Z"/></g>
<g><path style="opacity:1" fill="#f2f3f4" d="M 104.5,128.5 C 109.969,127.71 114.469,129.377 118,133.5C 123.086,127.884 128.919,127.051 135.5,131C 137.049,132.214 138.215,133.714 139,135.5C 139.5,143.159 139.666,150.826 139.5,158.5C 136.833,158.5 134.167,158.5 131.5,158.5C 131.666,151.492 131.5,144.492 131,137.5C 128.503,135.522 125.669,135.022 122.5,136C 121.299,136.903 120.465,138.069 120,139.5C 119.5,145.825 119.334,152.158 119.5,158.5C 116.833,158.5 114.167,158.5 111.5,158.5C 111.666,151.492 111.5,144.492 111,137.5C 108.503,135.522 105.669,135.022 102.5,136C 101.299,136.903 100.465,138.069 100,139.5C 99.5005,145.825 99.3338,152.158 99.5,158.5C 96.8333,158.5 94.1667,158.5 91.5,158.5C 91.5,148.833 91.5,139.167 91.5,129.5C 93.8333,129.5 96.1667,129.5 98.5,129.5C 98.281,130.675 98.6143,131.675 99.5,132.5C 101.21,131.113 102.877,129.779 104.5,128.5 Z"/></g>
<g><path style="opacity:1" fill="#f4f5f5" d="M 193.5,128.5 C 208.042,128.205 214.209,135.205 212,149.5C 206.927,159.191 199.427,161.691 189.5,157C 183.833,151.681 181.999,145.181 184,137.5C 186.406,133.592 189.572,130.592 193.5,128.5 Z"/></g>
<g><path style="opacity:1" fill="#f2f3f4" d="M 230.5,128.5 C 237.35,127.672 242.183,130.339 245,136.5C 245.5,143.826 245.666,151.159 245.5,158.5C 242.833,158.5 240.167,158.5 237.5,158.5C 237.666,151.825 237.5,145.158 237,138.5C 234.017,135.143 230.517,134.643 226.5,137C 225.874,137.75 225.374,138.584 225,139.5C 224.5,145.825 224.334,152.158 224.5,158.5C 221.833,158.5 219.167,158.5 216.5,158.5C 216.5,148.833 216.5,139.167 216.5,129.5C 218.833,129.5 221.167,129.5 223.5,129.5C 223.343,130.873 223.51,132.207 224,133.5C 225.965,131.45 228.132,129.783 230.5,128.5 Z"/></g>
<g><path style="opacity:1" fill="#f3f4f4" d="M 262.5,128.5 C 268.698,127.352 273.531,129.352 277,134.5C 278.401,142.415 278.901,150.415 278.5,158.5C 275.833,158.5 273.167,158.5 270.5,158.5C 270.666,151.825 270.5,145.158 270,138.5C 267.441,135.651 264.274,134.817 260.5,136C 259.299,136.903 258.465,138.069 258,139.5C 257.5,145.825 257.334,152.158 257.5,158.5C 254.833,158.5 252.167,158.5 249.5,158.5C 249.5,148.833 249.5,139.167 249.5,129.5C 251.833,129.5 254.167,129.5 256.5,129.5C 256.343,130.873 256.51,132.207 257,133.5C 258.73,131.598 260.563,129.931 262.5,128.5 Z"/></g>
<g><path style="opacity:1" fill="#f4f5f6" d="M 310.5,139.5 C 310.5,141.5 310.5,143.5 310.5,145.5C 303.137,145.169 295.803,145.503 288.5,146.5C 288.624,147.107 288.957,147.44 289.5,147.5C 290.422,151.083 292.756,152.75 296.5,152.5C 300.437,150.435 304.771,149.435 309.5,149.5C 304.975,159.576 297.642,162.076 287.5,157C 281.051,150.364 279.885,142.864 284,134.5C 290.719,127.473 298.219,126.64 306.5,132C 308.54,134.185 309.874,136.685 310.5,139.5 Z"/></g>
<g><path style="opacity:1" fill="#f3f4f4" d="M 323.5,128.5 C 330.386,127.674 336.22,129.674 341,134.5C 342.009,136.025 342.509,137.692 342.5,139.5C 338.204,140.015 334.537,138.848 331.5,136C 324.692,134.398 321.359,137.065 321.5,144C 321.359,150.935 324.692,153.602 331.5,152C 334.537,149.152 338.204,147.985 342.5,148.5C 341.456,154.047 338.123,157.547 332.5,159C 317.993,159.823 311.827,152.99 314,138.5C 316.022,133.98 319.189,130.647 323.5,128.5 Z"/></g>
<g><path style="opacity:1" fill="#13282e" d="M 194.5,135.5 C 204.349,135.517 207.516,140.184 204,149.5C 199.522,153.731 195.522,153.398 192,148.5C 190.743,143.617 191.576,139.284 194.5,135.5 Z"/></g>
<g><path style="opacity:1" fill="#0f252b" d="M 302.5,138.5 C 298.627,140.43 294.294,141.097 289.5,140.5C 289.859,138.629 290.859,137.129 292.5,136C 295.167,135.333 297.833,135.333 300.5,136C 301.381,136.708 302.047,137.542 302.5,138.5 Z"/></g>
<g><path style="opacity:1" fill="#818c8f" d="M 302.5,138.5 C 303.404,139.209 303.737,140.209 303.5,141.5C 298.637,141.819 293.97,141.486 289.5,140.5C 294.294,141.097 298.627,140.43 302.5,138.5 Z"/></g>
<g><path style="opacity:1" fill="#8f999c" d="M 34.5,140.5 C 29.6946,141.487 24.6946,141.821 19.5,141.5C 19.8222,147.358 19.4889,153.025 18.5,158.5C 18.5,152.5 18.5,146.5 18.5,140.5C 23.8333,140.5 29.1667,140.5 34.5,140.5 Z"/></g>
<g><path style="opacity:1" fill="#677478" d="M 310.5,139.5 C 311.468,141.607 311.802,143.941 311.5,146.5C 303.981,146.175 296.648,146.508 289.5,147.5C 288.957,147.44 288.624,147.107 288.5,146.5C 295.803,145.503 303.137,145.169 310.5,145.5C 310.5,143.5 310.5,141.5 310.5,139.5 Z"/></g>
<g><path style="opacity:1" fill="#1a2e33" d="M 49.5,146.5 C 52.8499,146.335 56.1832,146.502 59.5,147C 57.343,153.171 53.5096,154.671 48,151.5C 47.3872,149.505 47.8872,147.838 49.5,146.5 Z"/></g>
<g><path style="opacity:1" fill="#aad353" d="M 10.5,178.5 C 12.8568,178.337 15.1902,178.503 17.5,179C 15.8659,179.494 14.1992,179.66 12.5,179.5C 12.5,180.833 12.5,182.167 12.5,183.5C 17.8333,183.833 17.8333,184.167 12.5,184.5C 12.7852,186.288 12.4519,187.955 11.5,189.5C 10.5108,185.893 10.1774,182.226 10.5,178.5 Z"/></g>
<g><path style="opacity:1" fill="#acd553" d="M 48.5,178.5 C 54.8302,177.666 57.6635,180.333 57,186.5C 53.952,190.01 50.6187,190.343 47,187.5C 44.7879,184.021 45.2879,181.021 48.5,178.5 Z"/></g>
<g><path style="opacity:1" fill="#ccfa5b" d="M 103.5,179.5 C 107.991,178.259 109.324,178.259 107.5,179.5C 107.167,192.833 106.833,192.833 106.5,179.5C 105.5,179.5 104.5,179.5 103.5,179.5 Z"/></g>
<g><path style="opacity:1" fill="#a2c950" d="M 121.5,178.5 C 123.256,179.552 123.923,181.219 123.5,183.5C 125.167,183.5 126.833,183.5 128.5,183.5C 129.245,176.932 129.912,177.098 130.5,184C 129.912,190.902 129.245,191.068 128.5,184.5C 126.833,184.5 125.167,184.5 123.5,184.5C 123.785,186.288 123.452,187.955 122.5,189.5C 121.511,185.893 121.177,182.226 121.5,178.5 Z"/></g>
<g><path style="opacity:1" fill="#caf75b" d="M 141.5,178.5 C 143.857,178.337 146.19,178.503 148.5,179C 146.527,179.495 144.527,179.662 142.5,179.5C 142.5,180.833 142.5,182.167 142.5,183.5C 149.167,183.833 149.167,184.167 142.5,184.5C 142.5,185.833 142.5,187.167 142.5,188.5C 144.527,188.338 146.527,188.505 148.5,189C 146.19,189.497 143.857,189.663 141.5,189.5C 141.5,185.833 141.5,182.167 141.5,178.5 Z"/></g>
<g><path style="opacity:1" fill="#aad353" d="M 172.5,178.5 C 174.857,178.337 177.19,178.503 179.5,179C 177.866,179.494 176.199,179.66 174.5,179.5C 174.5,180.833 174.5,182.167 174.5,183.5C 179.833,183.833 179.833,184.167 174.5,184.5C 174.785,186.288 174.452,187.955 173.5,189.5C 172.511,185.893 172.177,182.226 172.5,178.5 Z"/></g>
<g><path style="opacity:1" fill="#a4cc51" d="M 209.5,178.5 C 212.365,178.055 214.865,178.722 217,180.5C 217.624,182.464 217.124,184.131 215.5,185.5C 216.04,186.748 216.707,187.915 217.5,189C 216.833,189.667 216.167,189.667 215.5,189C 213.343,184.255 211.676,184.422 210.5,189.5C 209.511,185.893 209.177,182.226 209.5,178.5 Z"/></g>
<g><path style="opacity:1" fill="#a5ce52" d="M 338.5,177.5 C 344.076,177.974 346.243,180.974 345,186.5C 341.952,190.01 338.619,190.343 335,187.5C 333.581,183.082 334.748,179.749 338.5,177.5 Z"/></g>
<g><path style="opacity:1" fill="#a1c950" d="M 355.5,178.5 C 357.237,181.008 358.07,184.008 358,187.5C 359.333,188.833 360.667,188.833 362,187.5C 362.179,184.447 362.679,181.447 363.5,178.5C 365.024,182.27 364.691,185.77 362.5,189C 359.975,189.896 357.808,189.396 356,187.5C 355.502,184.518 355.335,181.518 355.5,178.5 Z"/></g>
<g><path style="opacity:1" fill="#142a2b" d="M 49.5,179.5 C 55.6426,180.026 56.9759,182.86 53.5,188C 48.5036,188.664 46.6703,186.498 48,181.5C 48.7172,180.956 49.2172,180.289 49.5,179.5 Z"/></g>
<g><path style="opacity:1" fill="#13282a" d="M 211.5,179.5 C 214.5,179.167 215.833,180.5 215.5,183.5C 214.167,183.5 212.833,183.5 211.5,183.5C 211.5,182.167 211.5,180.833 211.5,179.5 Z"/></g>
<g><path style="opacity:1" fill="#acd653" d="M 263.5,179.5 C 267.967,178.138 269.633,178.138 268.5,179.5C 267.833,192.833 267.167,192.833 266.5,179.5C 265.5,179.5 264.5,179.5 263.5,179.5 Z"/></g>
<g><path style="opacity:1" fill="#a1c950" d="M 283.5,178.5 C 292.437,177.603 294.771,181.103 290.5,189C 284.963,190.985 281.963,189.152 281.5,183.5C 281.437,181.486 282.103,179.819 283.5,178.5 Z"/></g>
<g><path style="opacity:1" fill="#13282a" d="M 285.5,179.5 C 287.144,179.286 288.644,179.62 290,180.5C 290.814,182.902 290.647,185.235 289.5,187.5C 285.705,189.054 283.705,187.721 283.5,183.5C 283.803,181.886 284.47,180.552 285.5,179.5 Z"/></g>
<g><path style="opacity:1" fill="#172c2b" d="M 337.5,179.5 C 343.643,180.026 344.976,182.86 341.5,188C 336.504,188.664 334.67,186.498 336,181.5C 336.717,180.956 337.217,180.289 337.5,179.5 Z"/></g>
<g><path style="opacity:1" fill="#a0c850" d="M 67.5,178.5 C 68.675,178.281 69.675,178.614 70.5,179.5C 72.5,186.167 74.5,186.167 76.5,179.5C 77.325,178.614 78.325,178.281 79.5,178.5C 79.8226,182.226 79.4892,185.893 78.5,189.5C 77.6858,187.234 77.1858,184.9 77,182.5C 74.6667,189.167 72.3333,189.167 70,182.5C 69.8142,184.9 69.3142,187.234 68.5,189.5C 67.5108,185.893 67.1774,182.226 67.5,178.5 Z"/></g>
<g><path style="opacity:1" fill="#b0da54" d="M 315.5,179.5 C 315.897,178.475 316.563,178.308 317.5,179C 318.46,180.419 319.293,181.919 320,183.5C 320.667,182.167 321.333,180.833 322,179.5C 322.654,178.304 323.154,178.304 323.5,179.5C 321.481,182.538 320.314,185.871 320,189.5C 319.584,185.612 318.084,182.279 315.5,179.5 Z"/></g>
<g><path style="opacity:1" fill="#afd854" d="M 193.5,178.5 C 194.376,178.369 195.043,178.702 195.5,179.5C 196.935,182.643 198.268,185.81 199.5,189C 197.269,187.491 194.603,186.657 191.5,186.5C 191.719,187.675 191.386,188.675 190.5,189.5C 190.408,185.74 191.408,182.074 193.5,178.5 Z"/></g>
<g><path style="opacity:1" fill="#162c2b" d="M 193.5,181.5 C 195.104,182.287 195.771,183.62 195.5,185.5C 194.448,185.649 193.448,185.483 192.5,185C 193.337,183.989 193.67,182.822 193.5,181.5 Z"/></g>
<g><path style="opacity:1" fill="#a1c951" d="M 227.5,178.5 C 228.675,178.281 229.675,178.614 230.5,179.5C 231.414,181.664 232.581,183.664 234,185.5C 235.015,182.79 236.515,180.457 238.5,178.5C 239.833,182.167 239.833,185.833 238.5,189.5C 238.075,182.05 236.575,181.716 234,188.5C 232.414,186.33 231.08,183.996 230,181.5C 229.818,184.226 229.318,186.893 228.5,189.5C 227.511,185.893 227.177,182.226 227.5,178.5 Z"/></g>
<g><path style="opacity:1" fill="#9dc550" d="M 27.5,178.5 C 30.1194,178.232 32.6194,178.565 35,179.5C 35.8249,181.701 35.3249,183.534 33.5,185C 35.0139,186.439 35.3473,187.939 34.5,189.5C 33.6399,187.069 31.9732,185.736 29.5,185.5C 29.762,186.978 29.4287,188.311 28.5,189.5C 27.5108,185.893 27.1774,182.226 27.5,178.5 Z"/></g>
<g><path style="opacity:1" fill="#14292a" d="M 29.5,179.5 C 30.8333,179.5 32.1667,179.5 33.5,179.5C 33.5,180.833 33.5,182.167 33.5,183.5C 32.1667,183.5 30.8333,183.5 29.5,183.5C 29.5,182.167 29.5,180.833 29.5,179.5 Z"/></g>
</svg>
