<?xml version="1.0" encoding="UTF-8"?>
<!DOCTYPE svg PUBLIC "-//W3C//DTD SVG 1.1//EN" "http://www.w3.org/Graphics/SVG/1.1/DTD/svg11.dtd">
<svg xmlns="http://www.w3.org/2000/svg" version="1.1" width="500px" height="500px" style="shape-rendering:geometricPrecision; text-rendering:geometricPrecision; image-rendering:optimizeQuality; fill-rule:evenodd; clip-rule:evenodd" xmlns:xlink="http://www.w3.org/1999/xlink">
<g><path style="opacity:1" fill="#0d2329" d="M -0.5,-0.5 C 166.167,-0.5 332.833,-0.5 499.5,-0.5C 499.5,166.167 499.5,332.833 499.5,499.5C 332.833,499.5 166.167,499.5 -0.5,499.5C -0.5,332.833 -0.5,166.167 -0.5,-0.5 Z"/></g>
<g><path style="opacity:1" fill="#4ce572" d="M 262.5,167.5 C 260.19,168.164 257.69,168.497 255,168.5C 246.324,168.105 237.824,167.438 229.5,166.5C 236.804,156.79 245.804,154.957 256.5,161C 259.386,162.385 261.386,164.551 262.5,167.5 Z"/></g>
<g><path style="opacity:1" fill="#b5e95a" d="M 277.5,169.5 C 290.985,167.658 299.318,173.325 302.5,186.5C 302.663,188.857 302.497,191.19 302,193.5C 294.187,186.264 286.187,179.264 278,172.5C 277.517,171.552 277.351,170.552 277.5,169.5 Z"/></g>
<g><path style="opacity:1" fill="#42d36d" d="M 229.5,166.5 C 237.824,167.438 246.324,168.105 255,168.5C 257.69,168.497 260.19,168.164 262.5,167.5C 264.326,169.147 265.66,171.147 266.5,173.5C 265.215,175.452 263.549,177.118 261.5,178.5C 261.167,178.5 260.833,178.5 260.5,178.5C 248.488,177.954 236.488,177.287 224.5,176.5C 224.629,174.784 224.962,173.117 225.5,171.5C 226.833,169.833 228.167,168.167 229.5,166.5 Z"/></g>
<g><path style="opacity:1" fill="#93d058" d="M 277.5,169.5 C 277.351,170.552 277.517,171.552 278,172.5C 286.187,179.264 294.187,186.264 302,193.5C 302.497,191.19 302.663,188.857 302.5,186.5C 303.909,194.408 302.242,201.741 297.5,208.5C 291.921,204.933 286.587,200.933 281.5,196.5C 274.801,190.493 268.135,184.493 261.5,178.5C 263.549,177.118 265.215,175.452 266.5,173.5C 270.167,172.167 273.833,170.833 277.5,169.5 Z"/></g>
<g><path style="opacity:1" fill="#10ca9e" d="M 225.5,171.5 C 224.962,173.117 224.629,174.784 224.5,176.5C 223.076,178.515 222.41,180.848 222.5,183.5C 221.521,186.625 221.187,189.958 221.5,193.5C 214.004,198.749 206.337,203.749 198.5,208.5C 192.657,197.716 192.157,186.716 197,175.5C 205.384,166.444 214.884,165.111 225.5,171.5 Z"/></g>
<g><path style="opacity:1" fill="#36be67" d="M 224.5,176.5 C 236.488,177.287 248.488,177.954 260.5,178.5C 259.248,180.001 258.248,181.668 257.5,183.5C 255.1,185.296 253.433,187.63 252.5,190.5C 252.167,190.5 251.833,190.5 251.5,190.5C 241.852,189.755 232.185,189.422 222.5,189.5C 222.5,187.5 222.5,185.5 222.5,183.5C 222.41,180.848 223.076,178.515 224.5,176.5 Z"/></g>
<g><path style="opacity:1" fill="#6cb356" d="M 257.5,183.5 C 269.817,193.153 281.817,203.153 293.5,213.5C 292.243,216.427 290.243,218.761 287.5,220.5C 278.835,214.492 270.501,207.992 262.5,201C 258.772,197.688 255.439,194.188 252.5,190.5C 253.433,187.63 255.1,185.296 257.5,183.5 Z"/></g>
<g><path style="opacity:1" fill="#57a354" d="M 251.5,190.5 C 251.833,190.5 252.167,190.5 252.5,190.5C 255.439,194.188 258.772,197.688 262.5,201C 270.501,207.992 278.835,214.492 287.5,220.5C 285.451,223.55 282.784,225.883 279.5,227.5C 268.519,218.857 257.519,210.19 246.5,201.5C 247.895,197.71 249.562,194.043 251.5,190.5 Z"/></g>
<g><path style="opacity:1" fill="#81c357" d="M 260.5,178.5 C 260.833,178.5 261.167,178.5 261.5,178.5C 268.135,184.493 274.801,190.493 281.5,196.5C 286.587,200.933 291.921,204.933 297.5,208.5C 296.876,210.754 295.543,212.421 293.5,213.5C 281.817,203.153 269.817,193.153 257.5,183.5C 258.248,181.668 259.248,180.001 260.5,178.5 Z"/></g>
<g><path style="opacity:1" fill="#28a661" d="M 222.5,183.5 C 222.5,185.5 222.5,187.5 222.5,189.5C 232.185,189.422 241.852,189.755 251.5,190.5C 249.562,194.043 247.895,197.71 246.5,201.5C 238.586,202.467 230.586,202.801 222.5,202.5C 221.841,199.545 221.508,196.545 221.5,193.5C 221.187,189.958 221.521,186.625 222.5,183.5 Z"/></g>
<g><path style="opacity:1" fill="#0caa84" d="M 221.5,193.5 C 221.508,196.545 221.841,199.545 222.5,202.5C 222.833,204.5 223.167,206.5 223.5,208.5C 224.301,210.042 224.634,211.708 224.5,213.5C 219.42,217.038 214.087,220.038 208.5,222.5C 204.676,218.186 201.343,213.519 198.5,208.5C 206.337,203.749 214.004,198.749 221.5,193.5 Z"/></g>
<g><path style="opacity:1" fill="#369054" d="M 246.5,201.5 C 257.519,210.19 268.519,218.857 279.5,227.5C 277.451,230.55 274.784,232.883 271.5,234.5C 261.233,227.233 251.566,219.233 242.5,210.5C 236.194,209.528 229.861,208.861 223.5,208.5C 223.167,206.5 222.833,204.5 222.5,202.5C 230.586,202.801 238.586,202.467 246.5,201.5 Z"/></g>
<g><path style="opacity:1" fill="#217e52" d="M 223.5,208.5 C 229.861,208.861 236.194,209.528 242.5,210.5C 251.566,219.233 261.233,227.233 271.5,234.5C 269.14,236.853 266.473,238.853 263.5,240.5C 262.448,240.649 261.448,240.483 260.5,240C 253.459,233.824 246.459,227.657 239.5,221.5C 235.529,222.556 231.529,222.556 227.5,221.5C 226.488,218.748 225.488,216.081 224.5,213.5C 224.634,211.708 224.301,210.042 223.5,208.5 Z"/></g>
<g><path style="opacity:1" fill="#0a8f6f" d="M 224.5,213.5 C 225.488,216.081 226.488,218.748 227.5,221.5C 228.199,224.573 229.199,227.573 230.5,230.5C 228.441,233.193 225.774,234.86 222.5,235.5C 217.206,231.873 212.539,227.54 208.5,222.5C 214.087,220.038 219.42,217.038 224.5,213.5 Z"/></g>
<g><path style="opacity:1" fill="#096a51" d="M 227.5,221.5 C 231.529,222.556 235.529,222.556 239.5,221.5C 246.459,227.657 253.459,233.824 260.5,240C 261.448,240.483 262.448,240.649 263.5,240.5C 255.634,246.802 246.967,248.302 237.5,245C 232.097,242.308 227.097,239.142 222.5,235.5C 225.774,234.86 228.441,233.193 230.5,230.5C 229.199,227.573 228.199,224.573 227.5,221.5 Z"/></g>
<g><path style="opacity:1" fill="#f7f8f8" d="M 96.5,288.5 C 91.1667,288.5 85.8333,288.5 80.5,288.5C 80.5,294.5 80.5,300.5 80.5,306.5C 78.1667,306.5 75.8333,306.5 73.5,306.5C 73.5,292.833 73.5,279.167 73.5,265.5C 82.5,265.5 91.5,265.5 100.5,265.5C 100.5,267.5 100.5,269.5 100.5,271.5C 94.1667,271.5 87.8333,271.5 81.5,271.5C 81.5,275.167 81.5,278.833 81.5,282.5C 86.5,282.5 91.5,282.5 96.5,282.5C 96.5,284.5 96.5,286.5 96.5,288.5 Z"/></g>
<g><path style="opacity:1" fill="#f2f4f4" d="M 219.5,264.5 C 227.575,263.358 234.408,265.691 240,271.5C 241.411,273.65 242.245,275.984 242.5,278.5C 239.813,278.664 237.146,278.497 234.5,278C 227.964,269.597 221.131,269.43 214,277.5C 211.688,283.691 212.021,289.691 215,295.5C 219.218,300.63 224.384,301.796 230.5,299C 232.213,297.622 233.547,295.955 234.5,294C 237.146,293.503 239.813,293.336 242.5,293.5C 241.095,300.74 236.762,305.24 229.5,307C 210.526,307.685 202.359,298.518 205,279.5C 207.351,271.984 212.184,266.984 219.5,264.5 Z"/></g>
<g><path style="opacity:1" fill="#f2f3f3" d="M 411.5,269.5 C 414.167,269.5 416.833,269.5 419.5,269.5C 419.5,272.167 419.5,274.833 419.5,277.5C 421.833,277.5 424.167,277.5 426.5,277.5C 426.5,279.5 426.5,281.5 426.5,283.5C 424.167,283.5 421.833,283.5 419.5,283.5C 419.5,288.833 419.5,294.167 419.5,299.5C 421.833,299.5 424.167,299.5 426.5,299.5C 426.5,301.833 426.5,304.167 426.5,306.5C 421.515,307.229 417.015,306.229 413,303.5C 411.58,296.95 411.08,290.284 411.5,283.5C 409.833,283.5 408.167,283.5 406.5,283.5C 406.5,281.5 406.5,279.5 406.5,277.5C 408.167,277.5 409.833,277.5 411.5,277.5C 411.5,274.833 411.5,272.167 411.5,269.5 Z"/></g>
<g><path style="opacity:1" fill="#f1f2f2" d="M 111.5,276.5 C 118.092,275.64 123.592,277.64 128,282.5C 129.435,290.389 129.935,298.389 129.5,306.5C 127.167,306.5 124.833,306.5 122.5,306.5C 122.657,305.127 122.49,303.793 122,302.5C 116.026,308.786 109.693,309.119 103,303.5C 100.132,297.54 101.632,293.04 107.5,290C 112.155,289.501 116.821,289.334 121.5,289.5C 121.842,285.176 119.842,283.176 115.5,283.5C 112.447,282.952 110.447,284.118 109.5,287C 107.19,287.497 104.857,287.663 102.5,287.5C 102.961,281.71 105.961,278.043 111.5,276.5 Z"/></g>
<g><path style="opacity:1" fill="#f6f7f7" d="M 147.5,276.5 C 148.833,276.5 150.167,276.5 151.5,276.5C 151.5,279.167 151.5,281.833 151.5,284.5C 147.406,283.705 144.239,285.038 142,288.5C 141.501,294.491 141.334,300.491 141.5,306.5C 138.833,306.5 136.167,306.5 133.5,306.5C 133.5,296.833 133.5,287.167 133.5,277.5C 135.833,277.5 138.167,277.5 140.5,277.5C 140.34,279.199 140.506,280.866 141,282.5C 143.063,280.266 145.229,278.266 147.5,276.5 Z"/></g>
<g><path style="opacity:1" fill="#f2f3f4" d="M 166.5,276.5 C 171.969,275.71 176.469,277.377 180,281.5C 185.086,275.884 190.919,275.051 197.5,279C 199.049,280.214 200.215,281.714 201,283.5C 201.5,291.159 201.666,298.826 201.5,306.5C 198.833,306.5 196.167,306.5 193.5,306.5C 193.666,299.492 193.5,292.492 193,285.5C 190.503,283.522 187.669,283.022 184.5,284C 183.299,284.903 182.465,286.069 182,287.5C 181.5,293.825 181.334,300.158 181.5,306.5C 178.833,306.5 176.167,306.5 173.5,306.5C 173.666,299.492 173.5,292.492 173,285.5C 170.503,283.522 167.669,283.022 164.5,284C 163.299,284.903 162.465,286.069 162,287.5C 161.5,293.825 161.334,300.158 161.5,306.5C 158.833,306.5 156.167,306.5 153.5,306.5C 153.5,296.833 153.5,287.167 153.5,277.5C 155.833,277.5 158.167,277.5 160.5,277.5C 160.281,278.675 160.614,279.675 161.5,280.5C 163.21,279.113 164.877,277.779 166.5,276.5 Z"/></g>
<g><path style="opacity:1" fill="#f4f5f5" d="M 255.5,276.5 C 270.042,276.205 276.209,283.205 274,297.5C 268.927,307.191 261.427,309.691 251.5,305C 245.833,299.681 243.999,293.181 246,285.5C 248.406,281.592 251.572,278.592 255.5,276.5 Z"/></g>
<g><path style="opacity:1" fill="#f2f3f4" d="M 292.5,276.5 C 299.35,275.672 304.183,278.339 307,284.5C 307.5,291.826 307.666,299.159 307.5,306.5C 304.833,306.5 302.167,306.5 299.5,306.5C 299.666,299.825 299.5,293.158 299,286.5C 296.017,283.143 292.517,282.643 288.5,285C 287.874,285.75 287.374,286.584 287,287.5C 286.5,293.825 286.334,300.158 286.5,306.5C 283.833,306.5 281.167,306.5 278.5,306.5C 278.5,296.833 278.5,287.167 278.5,277.5C 280.833,277.5 283.167,277.5 285.5,277.5C 285.343,278.873 285.51,280.207 286,281.5C 287.965,279.45 290.132,277.783 292.5,276.5 Z"/></g>
<g><path style="opacity:1" fill="#f3f4f4" d="M 324.5,276.5 C 330.698,275.352 335.531,277.352 339,282.5C 340.401,290.415 340.901,298.415 340.5,306.5C 337.833,306.5 335.167,306.5 332.5,306.5C 332.666,299.825 332.5,293.158 332,286.5C 329.441,283.651 326.274,282.817 322.5,284C 321.299,284.903 320.465,286.069 320,287.5C 319.5,293.825 319.334,300.158 319.5,306.5C 316.833,306.5 314.167,306.5 311.5,306.5C 311.5,296.833 311.5,287.167 311.5,277.5C 313.833,277.5 316.167,277.5 318.5,277.5C 318.343,278.873 318.51,280.207 319,281.5C 320.73,279.598 322.563,277.931 324.5,276.5 Z"/></g>
<g><path style="opacity:1" fill="#f4f5f6" d="M 372.5,287.5 C 372.5,289.5 372.5,291.5 372.5,293.5C 365.137,293.169 357.803,293.503 350.5,294.5C 350.624,295.107 350.957,295.44 351.5,295.5C 352.422,299.083 354.756,300.75 358.5,300.5C 362.437,298.435 366.771,297.435 371.5,297.5C 366.975,307.576 359.642,310.076 349.5,305C 343.051,298.364 341.885,290.864 346,282.5C 352.719,275.473 360.219,274.64 368.5,280C 370.54,282.185 371.874,284.685 372.5,287.5 Z"/></g>
<g><path style="opacity:1" fill="#f3f4f4" d="M 385.5,276.5 C 392.386,275.674 398.22,277.674 403,282.5C 404.009,284.025 404.509,285.692 404.5,287.5C 400.204,288.015 396.537,286.848 393.5,284C 386.692,282.398 383.359,285.065 383.5,292C 383.359,298.935 386.692,301.602 393.5,300C 396.537,297.152 400.204,295.985 404.5,296.5C 403.456,302.047 400.123,305.547 394.5,307C 379.993,307.823 373.827,300.99 376,286.5C 378.022,281.98 381.189,278.647 385.5,276.5 Z"/></g>
<g><path style="opacity:1" fill="#13282e" d="M 256.5,283.5 C 266.349,283.517 269.516,288.184 266,297.5C 261.522,301.731 257.522,301.398 254,296.5C 252.743,291.617 253.576,287.284 256.5,283.5 Z"/></g>
<g><path style="opacity:1" fill="#0f252b" d="M 364.5,286.5 C 360.627,288.43 356.294,289.097 351.5,288.5C 351.859,286.629 352.859,285.129 354.5,284C 357.167,283.333 359.833,283.333 362.5,284C 363.381,284.708 364.047,285.542 364.5,286.5 Z"/></g>
<g><path style="opacity:1" fill="#818c8f" d="M 364.5,286.5 C 365.404,287.209 365.737,288.209 365.5,289.5C 360.637,289.819 355.97,289.486 351.5,288.5C 356.294,289.097 360.627,288.43 364.5,286.5 Z"/></g>
<g><path style="opacity:1" fill="#8f999c" d="M 96.5,288.5 C 91.6946,289.487 86.6946,289.821 81.5,289.5C 81.8222,295.358 81.4889,301.025 80.5,306.5C 80.5,300.5 80.5,294.5 80.5,288.5C 85.8333,288.5 91.1667,288.5 96.5,288.5 Z"/></g>
<g><path style="opacity:1" fill="#677478" d="M 372.5,287.5 C 373.468,289.607 373.802,291.941 373.5,294.5C 365.981,294.175 358.648,294.508 351.5,295.5C 350.957,295.44 350.624,295.107 350.5,294.5C 357.803,293.503 365.137,293.169 372.5,293.5C 372.5,291.5 372.5,289.5 372.5,287.5 Z"/></g>
<g><path style="opacity:1" fill="#1a2e33" d="M 111.5,294.5 C 114.85,294.335 118.183,294.502 121.5,295C 119.343,301.171 115.51,302.671 110,299.5C 109.387,297.505 109.887,295.838 111.5,294.5 Z"/></g>
<g><path style="opacity:1" fill="#aad353" d="M 72.5,326.5 C 74.8568,326.337 77.1902,326.503 79.5,327C 77.8659,327.494 76.1992,327.66 74.5,327.5C 74.5,328.833 74.5,330.167 74.5,331.5C 79.8333,331.833 79.8333,332.167 74.5,332.5C 74.7852,334.288 74.4519,335.955 73.5,337.5C 72.5108,333.893 72.1774,330.226 72.5,326.5 Z"/></g>
<g><path style="opacity:1" fill="#ccfa5b" d="M 165.5,327.5 C 169.991,326.259 171.324,326.259 169.5,327.5C 169.167,340.833 168.833,340.833 168.5,327.5C 167.5,327.5 166.5,327.5 165.5,327.5 Z"/></g>
<g><path style="opacity:1" fill="#9ec64f" d="M 183.5,326.5 C 185.256,327.552 185.923,329.219 185.5,331.5C 187.167,331.5 188.833,331.5 190.5,331.5C 191.245,324.932 191.912,325.098 192.5,332C 191.912,338.902 191.245,339.068 190.5,332.5C 188.833,332.5 187.167,332.5 185.5,332.5C 185.785,334.288 185.452,335.955 184.5,337.5C 183.511,333.893 183.177,330.226 183.5,326.5 Z"/></g>
<g><path style="opacity:1" fill="#caf75b" d="M 203.5,326.5 C 205.857,326.337 208.19,326.503 210.5,327C 208.527,327.495 206.527,327.662 204.5,327.5C 204.5,328.833 204.5,330.167 204.5,331.5C 211.167,331.833 211.167,332.167 204.5,332.5C 204.5,333.833 204.5,335.167 204.5,336.5C 206.527,336.338 208.527,336.505 210.5,337C 208.19,337.497 205.857,337.663 203.5,337.5C 203.5,333.833 203.5,330.167 203.5,326.5 Z"/></g>
<g><path style="opacity:1" fill="#aad353" d="M 234.5,326.5 C 236.857,326.337 239.19,326.503 241.5,327C 239.866,327.494 238.199,327.66 236.5,327.5C 236.5,328.833 236.5,330.167 236.5,331.5C 241.833,331.833 241.833,332.167 236.5,332.5C 236.785,334.288 236.452,335.955 235.5,337.5C 234.511,333.893 234.177,330.226 234.5,326.5 Z"/></g>
<g><path style="opacity:1" fill="#a4cc51" d="M 271.5,326.5 C 274.365,326.055 276.865,326.722 279,328.5C 279.624,330.464 279.124,332.131 277.5,333.5C 278.04,334.748 278.707,335.915 279.5,337C 278.833,337.667 278.167,337.667 277.5,337C 275.343,332.255 273.676,332.422 272.5,337.5C 271.511,333.893 271.177,330.226 271.5,326.5 Z"/></g>
<g><path style="opacity:1" fill="#a2ca51" d="M 417.5,326.5 C 419.237,329.008 420.07,332.008 420,335.5C 421.333,336.833 422.667,336.833 424,335.5C 424.179,332.447 424.679,329.447 425.5,326.5C 427.024,330.27 426.691,333.77 424.5,337C 421.975,337.896 419.808,337.396 418,335.5C 417.502,332.518 417.335,329.518 417.5,326.5 Z"/></g>
<g><path style="opacity:1" fill="#13282a" d="M 273.5,327.5 C 276.5,327.167 277.833,328.5 277.5,331.5C 276.167,331.5 274.833,331.5 273.5,331.5C 273.5,330.167 273.5,328.833 273.5,327.5 Z"/></g>
<g><path style="opacity:1" fill="#acd653" d="M 325.5,327.5 C 329.967,326.138 331.633,326.138 330.5,327.5C 329.833,340.833 329.167,340.833 328.5,327.5C 327.5,327.5 326.5,327.5 325.5,327.5 Z"/></g>
<g><path style="opacity:1" fill="#a1c950" d="M 345.5,326.5 C 354.437,325.603 356.771,329.103 352.5,337C 346.963,338.985 343.963,337.152 343.5,331.5C 343.437,329.486 344.103,327.819 345.5,326.5 Z"/></g>
<g><path style="opacity:1" fill="#13282a" d="M 347.5,327.5 C 349.144,327.286 350.644,327.62 352,328.5C 352.814,330.902 352.647,333.235 351.5,335.5C 347.705,337.054 345.705,335.721 345.5,331.5C 345.803,329.886 346.47,328.552 347.5,327.5 Z"/></g>
<g><path style="opacity:1" fill="#a0c850" d="M 129.5,326.5 C 130.675,326.281 131.675,326.614 132.5,327.5C 134.5,334.167 136.5,334.167 138.5,327.5C 139.325,326.614 140.325,326.281 141.5,326.5C 141.823,330.226 141.489,333.893 140.5,337.5C 139.686,335.234 139.186,332.9 139,330.5C 136.667,337.167 134.333,337.167 132,330.5C 131.814,332.9 131.314,335.234 130.5,337.5C 129.511,333.893 129.177,330.226 129.5,326.5 Z"/></g>
<g><path style="opacity:1" fill="#b0da54" d="M 377.5,327.5 C 377.897,326.475 378.563,326.308 379.5,327C 380.46,328.419 381.293,329.919 382,331.5C 382.667,330.167 383.333,328.833 384,327.5C 384.654,326.304 385.154,326.304 385.5,327.5C 383.481,330.538 382.314,333.871 382,337.5C 381.584,333.612 380.084,330.279 377.5,327.5 Z"/></g>
<g><path style="opacity:1" fill="#afd854" d="M 110.5,326.5 C 116.83,325.666 119.663,328.333 119,334.5C 115.952,338.01 112.619,338.343 109,335.5C 106.788,332.021 107.288,329.021 110.5,326.5 Z"/></g>
<g><path style="opacity:1" fill="#142a2b" d="M 111.5,327.5 C 117.643,328.026 118.976,330.86 115.5,336C 110.504,336.664 108.67,334.498 110,329.5C 110.717,328.956 111.217,328.289 111.5,327.5 Z"/></g>
<g><path style="opacity:1" fill="#afd854" d="M 255.5,326.5 C 256.376,326.369 257.043,326.702 257.5,327.5C 258.935,330.643 260.268,333.81 261.5,337C 259.269,335.491 256.603,334.657 253.5,334.5C 253.719,335.675 253.386,336.675 252.5,337.5C 252.408,333.74 253.408,330.074 255.5,326.5 Z"/></g>
<g><path style="opacity:1" fill="#162c2b" d="M 255.5,329.5 C 257.104,330.287 257.771,331.62 257.5,333.5C 256.448,333.649 255.448,333.483 254.5,333C 255.337,331.989 255.67,330.822 255.5,329.5 Z"/></g>
<g><path style="opacity:1" fill="#a1c951" d="M 289.5,326.5 C 290.675,326.281 291.675,326.614 292.5,327.5C 293.414,329.664 294.581,331.664 296,333.5C 297.015,330.79 298.515,328.457 300.5,326.5C 301.833,330.167 301.833,333.833 300.5,337.5C 300.075,330.05 298.575,329.716 296,336.5C 294.414,334.33 293.08,331.996 292,329.5C 291.818,332.226 291.318,334.893 290.5,337.5C 289.511,333.893 289.177,330.226 289.5,326.5 Z"/></g>
<g><path style="opacity:1" fill="#9dc550" d="M 89.5,326.5 C 92.1194,326.232 94.6194,326.565 97,327.5C 97.8249,329.701 97.3249,331.534 95.5,333C 97.0139,334.439 97.3473,335.939 96.5,337.5C 95.6399,335.069 93.9732,333.736 91.5,333.5C 91.762,334.978 91.4287,336.311 90.5,337.5C 89.5108,333.893 89.1774,330.226 89.5,326.5 Z"/></g>
<g><path style="opacity:1" fill="#14292a" d="M 91.5,327.5 C 92.8333,327.5 94.1667,327.5 95.5,327.5C 95.5,328.833 95.5,330.167 95.5,331.5C 94.1667,331.5 92.8333,331.5 91.5,331.5C 91.5,330.167 91.5,328.833 91.5,327.5 Z"/></g>
<g><path style="opacity:1" fill="#b1db55" d="M 400.5,325.5 C 406.076,325.974 408.243,328.974 407,334.5C 403.952,338.01 400.619,338.343 397,335.5C 395.581,331.082 396.748,327.749 400.5,325.5 Z"/></g>
<g><path style="opacity:1" fill="#172c2b" d="M 399.5,327.5 C 405.643,328.026 406.976,330.86 403.5,336C 398.504,336.664 396.67,334.498 398,329.5C 398.717,328.956 399.217,328.289 399.5,327.5 Z"/></g>
</svg>
